<svg xmlns="http://www.w3.org/2000/svg" xmlns:xlink="http://www.w3.org/1999/xlink" version="1.1" x="0px" y="0px" viewBox="0 0 512 640" style="enable-background:new 0 0 512 512;" xml:space="preserve"><metadata><?xpacket begin="&#65279;" id="W5M0MpCehiHzreSzNTczkc9d"?><x:xmpmeta xmlns:x="adobe:ns:meta/" x:xmptk="Adobe XMP Core 5.6-c148 79.164050, 2019/10/01-18:03:16        "/><?xpacket end="w"?></metadata><g><path d="M174.923,146.608v79.997c0,19.916,46.008,24.097,84.604,24.097s84.614-4.181,84.614-24.097v-79.919   c25.186-2.034,45.299-22.758,45.673-48.527c0.393-27.377-21.556-49.968-48.933-50.362c-3.749,0.077-7.451,0.307-11.066,1.074   c-15.745-23.071-41.971-37.349-70.422-37.752c-28.201,0.403-54.408,14.671-70.144,37.752c-3.615-0.767-7.364-1.016-11.075-1.074   c-13.262,0.192-25.651,5.533-34.895,15.045c-9.234,9.512-14.221,22.055-14.029,35.316   C129.621,123.909,149.95,144.205,174.923,146.608z M324.502,223.22c-6.799,3.174-29.323,7.844-64.975,7.844   c-35.642,0-58.167-4.67-64.966-7.844v-81.373c6.319-3.433,28.815-8.659,64.966-8.659c36.525,0,58.934,5.399,64.975,8.908V223.22z    M157.366,76.527c5.59-5.744,13.079-8.975,21.096-9.09c4.027,0.221,7.892,0.662,11.555,2.119l8.036,3.203l4.19-7.566   c11.564-20.904,33.571-34.099,57.151-34.434c23.858,0.336,45.864,13.53,57.429,34.434l4.19,7.566l8.036-3.203   c3.682-1.467,7.968-1.947,11.555-2.119c16.551,0.24,29.812,13.895,29.573,30.436c-0.23,16.397-13.655,29.573-29.985,29.573   c-0.976,0.007-2.096-0.119-3.185-0.235c-9.333-6.814-26.419-10.264-43.102-11.996l8.966-29.299l-18.775-5.753l-10.302,33.666   c-1.281-0.048-2.584-0.101-3.803-0.134V64.33H250.35v49.336c-1.242,0.029-2.51,0.067-3.82,0.11l-10.285-33.614l-18.775,5.753   l8.917,29.139c-17.323,1.673-35.146,5.162-44.593,12.188c-0.819,0.082-1.633,0.192-2.469,0.204   c-15.956-0.479-30.205-13.032-30.436-29.573C148.774,89.856,151.785,82.28,157.366,76.527z"/><path d="M485.838,40.702c-5.485-11.938-16.464-20.482-29.371-22.86c-12.936-2.378-26.207,1.678-35.594,10.864   c-10.788,10.567-16.886,25.296-16.723,40.408l0.403,37.8c0.115,10.059-7.93,55.367-13.358,83.367l-1.889,9.733l6.921,1.275   l-14.194,76.366c-6.337,0.205-13.087,1.698-17.86,5.86l-1.937,1.63c-7.997,6.607-21.374,17.663-43.17,62.722l-19.053,36.851   c-11.2,21.633-10.433,44.522,1.937,58.321l40.255,44.877c5.658,6.31,12.59,10.625,21.249,12.715   c1.419,0.173,2.867,0.249,4.305,0.249c6.31,0,12.763-1.621,18.871-4.766l53.622-27.549c16.474-8.458,25.363-29.563,22.64-53.775   l-4.632-40.955c-4.641-54.379-11.133-66.625-16.062-75.916c-2.644-4.992-7.538-8.523-12.703-10.999l14.282-76.865l6.342,1.169   l2.09-9.186c4.401-19.322,16.742-71.803,20.952-82.456l13.866-35.173C492.579,70.351,492.148,54.424,485.838,40.702z    M415.543,204.851l8.917,1.643l-13.983,75.26l-8.921-1.647L415.543,204.851z M335.482,444.784l4.442,11.181l-23.361-26.044   c-6.76-7.537-6.405-22.084,0.892-36.17l19.178-37.09c19.511-40.348,30.706-50.236,37.524-55.882   c-2.434,5.131-4.664,10.68-6.609,17.037l-32.708,100.1C331.963,427.438,332.241,437.343,335.482,444.784z M393.841,444.938   l-25.948,28.24l-14.278-35.94c-1.496-3.423-1.486-8.659-0.048-13.434l32.699-100.052c2.004-6.53,4.267-12.245,6.722-17.001   c2.033-3.941,3.682-6.175,4.747-7.374l4.64,0.852l2.822,0.521c0.566,1.514,1.303,4.181,1.792,8.589   c0.604,5.312,0.671,11.468,0.221,18.162l-8.294,104.453C398.53,437.238,396.717,442.003,393.841,444.938z M438.717,375.772   l4.651,41.223c1.784,15.764-3.078,29.477-12.092,34.099l-31.125,15.993l7.919-8.619c5.916-6.022,9.714-15.17,10.423-25.037   l8.304-104.492c0.448-6.644,0.354-12.529-0.064-18.097C430.343,318.372,435.006,332.302,438.717,375.772z M468.76,77.198   l-13.875,35.173c-4.488,11.392-15.055,56.067-19.705,76.127l-22.851-4.21c3.864-20.511,11.996-65.234,11.862-77.585l-0.403-37.8   c-0.105-9.79,3.845-19.331,10.836-26.178c4.881-4.775,11.555-6.808,18.277-5.571c6.732,1.237,12.226,5.523,15.093,11.747   C472.078,57.78,472.356,68.098,468.76,77.198z"/><path d="M211.745,315.812c-5.581-15.458-21.278-24.068-35.614-19.619l-15.07,4.672l-26.955-85.863l5.318-1.649l-2.695-9.263   c-5.552-19.101-20.262-71.266-21.527-83.041l-4.21-39.123c-1.678-15.525-9.733-29.899-22.093-39.43L66.941,25.551   c-5.686-4.382-13.195-5.734-20.041-3.615c-6.866,2.129-12.293,7.479-14.499,14.326l-8.544,26.399   c-4.785,14.853-3.299,31.26,4.095,45.011l18.66,34.655c5.619,10.442,23.301,61.705,29.63,80.577l3.059,9.09l5.287-1.64   l26.95,85.861l-15.217,4.717h-0.01c-14.364,4.459-22.4,20.405-18.286,36.266l29.189,114.752   c2.253,8.688,7.844,16.062,15.333,20.233c4.248,2.368,8.851,3.577,13.444,3.577c2.618,0,5.226-0.393,7.767-1.179l91.671-28.422   c7.01-2.167,12.744-7.134,16.148-13.981c3.816-7.671,4.248-16.915,1.179-25.411L211.745,315.812z M63.901,133.016L45.251,98.371   c-4.871-9.071-5.859-19.878-2.704-29.668l8.534-26.399c0.326-1.007,1.064-1.429,1.63-1.601c0.211-0.067,0.47-0.125,0.758-0.125   c0.451,0,0.959,0.134,1.477,0.527l21.968,16.944c8.141,6.281,13.453,15.755,14.556,25.986l4.21,39.123   c1.371,12.705,13.799,57.112,19.523,77.144l-23.416,7.259C85.074,187.875,69.952,144.245,63.901,133.016z M103.351,224.543   l8.784-2.729l3.223-0.998l26.945,85.864l-12.004,3.721L103.351,224.543z M233.992,443.432c-0.7,1.41-2.023,3.241-4.373,3.97   l-91.671,28.422c-2.33,0.719-4.478-0.019-5.849-0.796c-2.819-1.573-4.967-4.488-5.868-7.959L97.041,352.317   c-1.458-5.638,0.825-11.296,5.092-12.629l79.81-24.74c4.258-1.333,9.359,2.062,11.353,7.604l41.012,110.964   C235.545,436.931,235.43,440.546,233.992,443.432z"/><rect x="126.42" y="369.048" transform="matrix(0.9574 -0.2888 0.2888 0.9574 -112.3642 56.786)" width="19.633" height="80.177"/><rect x="155.407" y="360.303" transform="matrix(0.9574 -0.2888 0.2888 0.9574 -108.6029 64.7858)" width="19.633" height="80.177"/><rect x="184.39" y="351.556" transform="matrix(0.9573 -0.2889 0.2889 0.9573 -104.8784 72.8184)" width="19.633" height="80.18"/><path d="M64.218,354.283c-4.977-18.488,5.447-37.378,23.733-43.016l7.815-2.407l-5.773-18.775l-7.825,2.407   c-28.441,8.774-44.656,38.164-36.86,67.085l3.615,12.408l18.852-5.485L64.218,354.283z"/><rect x="54.281" y="378.668" transform="matrix(0.9602 -0.2792 0.2792 0.9602 -106.0599 33.3633)" width="19.634" height="20.711"/><path d="M307.961,312.043c-0.125,0-0.259,0-0.393,0c-15.975,0-29.084-12.888-29.295-28.921l-19.638,0.268   c0.105,7.825-2.848,15.218-8.304,20.827c-5.466,5.61-12.782,8.755-20.607,8.851l0.249,19.638c0.134,0,0.259,0,0.384,0   c15.985,0,29.103,12.888,29.304,28.911l19.638-0.249c-0.211-16.158,12.773-29.477,28.93-29.688L307.961,312.043z M269.11,332.396   c-1.44-1.877-2.871-3.762-4.597-5.442c-1.728-1.686-3.645-3.061-5.553-4.443c1.875-1.438,3.759-2.866,5.438-4.59   c1.68-1.727,3.063-3.651,4.453-5.566c2.895,3.773,6.282,7.114,10.131,9.907C275.216,325.153,271.901,328.554,269.11,332.396z"/></g><text x="0" y="527" fill="#000000" font-size="5px" font-weight="bold" font-family="'Helvetica Neue', Helvetica, Arial-Unicode, Arial, Sans-serif"></text><text x="0" y="532" fill="#000000" font-size="5px" font-weight="bold" font-family="'Helvetica Neue', Helvetica, Arial-Unicode, Arial, Sans-serif"></text></svg>