<svg xmlns="http://www.w3.org/2000/svg" version="1.1" xmlns:xlink="http://www.w3.org/1999/xlink" xmlns:svgjs="http://svgjs.dev/svgjs" viewBox="0 0 800 800"><g stroke-width="3" stroke="hsl(0, 0%, 81%)" fill="none"><path d="M1596.1511957616135 -717.4466403604113C1761.5245847573542 -317.579231408885 1558.4428151623715 1024.8721203629552 1163.782261149925 1445.2960693104292C769.1217071374781 1865.7200182579027 113.94744990671961 1617.2771132147504 -298.2194634981314 1300.5883145874604C-710.3863769029826 983.8995159601709 -953.8292268326336 294.9097959503481 -814.6189231933624 -74.81016410056054C-675.4086195540913 -444.5301241514694 -132.25378081191866 -340.18489443609656 369.989993970368 -474.06749365689825C872.2337687526551 -607.9500928776998 1430.777806765872 -1117.3140493119374 1596.1511957616135 -717.4466403604113C1761.5245847573542 -317.579231408885 1558.4428151623715 1024.8721203629552 1163.782261149925 1445.2960693104292 "></path><path d="M1568.965763062086 -692.0501216452776C1730.5806659442878 -301.27060835174063 1532.114391112827 1010.6704854252853 1146.4233951461179 1421.5393446239527C760.7323991794087 1832.4082038226202 120.44846597662217 1589.6117284395395 -282.3510175781189 1280.1204025083248C-685.1505011328599 970.62907657711 -923.0605590186551 297.29821384023717 -787.0141259166401 -64.01901984587812C-650.967692814625 -425.3362535319934 -120.15728222568373 -323.36250631015184 370.6718613115513 -454.2023191850262C861.5010048487861 -585.0421320599005 1407.3508601798849 -1082.8296349388145 1568.965763062086 -692.0501216452776C1730.5806659442878 -301.27060835174063 1532.114391112827 1010.6704854252853 1146.4233951461179 1421.5393446239527 "></path><path d="M1541.7806965734967 -666.653602930144C1699.637113342159 -284.96198529459616 1505.7863332742204 996.4688504876149 1129.0648953532482 1397.7826199374763C752.3434574322769 1799.0963893873377 126.94984825746201 1561.9463436643282 -266.4822054471688 1259.6524904291882C-659.9142591517996 957.3586371940482 -892.2915249937391 299.68663173012646 -759.4089624289802 -53.2278755911957C-626.5263998642214 -406.14238291251763 -108.0604174285113 -306.54011818420713 371.3540948636719 -434.3371447131542C850.7686071558546 -562.1341712421013 1383.924279804835 -1048.3452205656918 1541.7806965734967 -666.653602930144C1699.637113342159 -284.96198529459616 1505.7863332742204 996.4688504876149 1129.0648953532482 1397.7826199374763 "></path><path d="M1514.5953249091258 -641.2570231798541C1668.693255564248 -268.65330120229544 1479.457970259832 982.2672765851012 1111.7060903845977 1374.025956286156C743.9542105093635 1765.7846359872115 133.4509253625206 1534.281019924274 -250.6136984919999 1239.1846393852084C-634.6783223465204 944.0882588461432 -861.5227961446043 302.0751106551718 -731.8041041171016 -42.4366703013568C-602.0854120895989 -386.9484512578854 -95.9638578071199 -289.7176690231063 372.036023240011 -414.47190920612593C840.0359042871421 -539.2261493891457 1360.4973942540032 -1013.8607451574126 1514.5953249091258 -641.2570231798541C1668.693255564248 -268.65330120229544 1479.457970259832 982.2672765851012 1111.7060903845977 1374.025956286156 "></path><path d="M1487.4100447974893 -615.8605654998767C1637.7494893390722 -252.34473918030733 1453.1296987981782 968.065580612275 1094.3473769686816 1350.2691705645238C735.5650551391848 1732.4727605167727 139.95209402031355 1506.6155741139064 -234.74509998409678 1218.716666270916C-609.442293988507 930.8177584279256 -830.7539757427351 304.4634675099046 -704.1991542524886 -31.6455870818304C-577.644332762242 -367.75464167356586 -83.86720663299434 -272.8953419323178 372.7180431690847 -394.60679576941027C829.3032929711637 -516.3182496065027 1337.0706002559064 -979.376391819446 1487.4100447974893 -615.8605654998767C1637.7494893390722 -252.34473918030733 1453.1296987981782 968.065580612275 1094.3473769686816 1350.2691705645238 "></path><path d="M1460.2249477913215 -590.4639552320086C1606.8059062193647 -236.0360245704287 1426.8016104419935 953.8640372273387 1076.9888466582343 1326.5125374307813C727.1760828744746 1699.1610376342242 146.45344578357526 1478.9502808914299 -218.8763183707249 1198.2488457445138C-584.2060825250248 917.5474105975984 -799.9849722353972 306.8519769525278 -676.5940212824069 -20.85435127441383C-553.2030703294165 -348.5606795013557 -71.77037235339992 -256.07286225363896 373.40024620362715 -374.741529744804C818.5708647606541 -493.410197235969 1313.6439893632787 -944.8918858935887 1460.2249477913215 -590.4639552320086C1606.8059062193647 -236.0360245704287 1426.8016104419935 953.8640372273387 1076.9888466582343 1326.5125374307813 "></path><path d="M1433.0395761269506 -565.0674670344531C1575.8620484414546 -219.72743203086225 1400.4732474276057 939.6623717720906 1059.6300416895838 1302.7557822267272C718.7868359515614 1665.8491926813635 152.95452288863362 1451.2848655986409 -203.00781141555603 1177.7809031478C-558.9701457197457 904.2769406969587 -769.2162433862625 309.240364324839 -648.9891629705282 -10.063237537309305C-528.762082554794 -329.36683939945783 -59.67381273200863 -239.25050464527226 374.0821745799665 -354.8763857905101C807.8381618919416 -470.5022669357479 1290.217103812447 -910.407502038044 1433.0395761269506 -565.0674670344531C1575.8620484414546 -219.72743203086225 1400.4732474276057 939.6623717720906 1059.6300416895838 1302.7557822267272 "></path><path d="M1405.8543875680489 -539.6709483193195C1544.9183737690128 -203.4188089737179 1374.1450675186861 925.4607368344205 1042.2714198264016 1278.9990575402508C710.3977721341168 1632.537378246081 159.45578309916118 1423.61948082343 -187.13912135491842 1157.312991068664C-533.7340258089979 891.0065013138974 -738.4473314316589 311.62878221472806 -621.3841215531809 0.7279067173731164C-504.3209116747028 -310.17296877998206 -47.577070005148585 -222.42811651932766 374.76428606177456 -335.01121131863806C797.1056421286976 -447.5943061179486 1266.7904013670845 -875.9230876649211 1405.8543875680489 -539.6709483193195C1544.9183737690128 -203.4188089737179 1374.1450675186861 925.4607368344205 1042.2714198264016 1278.9990575402508 "></path><path d="M1378.669046421256 -514.2745821920764C1513.9745465086808 -187.11033850446415 1347.8167350218764 911.2589493088599 1024.912645375329 1255.2421802658837C702.0085557287819 1599.2254112229075 165.95689072179766 1395.9539434603284 -171.27058388217142 1136.8449264016372C-508.4980584861407 877.7359093429457 -707.678572064946 314.0170475167265 -593.7792327237241 11.518898384164913C-479.87989338250225 -290.9792507483967 -35.48047986617928 -205.60588098127357 375.4462449556918 -315.14618943465666C786.3729697775632 -424.68649788803987 1243.3635463338314 -841.4388258796889 1378.669046421256 -514.2745821920764C1513.9745465086808 -187.11033850446415 1347.8167350218764 911.2589493088599 1024.912645375329 1255.2421802658837 "></path><path d="M1351.4837663096196 -488.8780024417866C1483.0307802835046 -170.80165441216343 1321.488463560223 897.057375406346 1007.5539319594127 1231.4855166145635C693.6194003586031 1565.9136578227813 172.45805937959085 1368.2886197202733 -155.4019853742683 1116.3770753576573C-483.2620301281272 864.4655309950404 -676.9097516630768 316.40552644177205 -566.1742828591111 22.3101036740037C-455.4388140551454 -271.78531909376466 -23.383828692053612 -188.7834318201726 376.1282648847655 -295.2809539276285C775.6403584615848 -401.7784760350844 1219.9367523357346 -806.9543504714097 1351.4837663096196 -488.8780024417866C1483.0307802835046 -170.80165441216343 1321.488463560223 897.057375406346 1007.5539319594127 1231.4855166145635 "></path><path d="M1324.2985777507174 -463.48145320907486C1452.0871056110627 -154.49300083744095 1295.160283651303 882.8557709862539 990.195310096231 1207.7288224456652C685.2303365411585 1532.601873905077 178.95931959011796 1340.623265462641 -139.53329531363067 1095.909193796099C-458.0259102173794 851.1951221295569 -646.1408397084733 318.793974849239 -538.5692414417638 33.101278446264246C-430.9976431750542 -252.59141795671064 -11.287085965193683 -171.96101317664989 376.81037636657356 -275.41574893817847C764.9078386983408 -378.87048469970705 1196.510049890372 -772.4699055807088 1324.2985777507174 -463.48145320907486C1452.0871056110627 -154.49300083744095 1295.160283651303 882.8557709862539 990.195310096231 1207.7288224456652 "></path><path d="M1297.1134197093934 -438.0849039763631C1421.1434614561995 -138.18434726271835 1268.832134259962 868.6541665661618 972.8367187506271 1183.9721282767669C676.8413032412923 1499.2900899873725 185.46061031822364 1312.9579112050078 -123.66457473541504 1075.4413122345409C-432.78975978905345 837.9247132640737 -615.3718972362917 321.18242325670644 -510.96416950683823 43.892453218524906C-406.55644177738486 -233.39751681965663 0.8096872792444856 -155.13859453312705 377.49251836595977 -255.55054394872832C754.1753494526747 -355.9624933643296 1173.0833779625877 -737.9854606900078 1297.1134197093934 -438.0849039763631C1421.1434614561995 -138.18434726271835 1268.832134259962 868.6541665661618 972.8367187506271 1183.9721282767669 "></path><path d="M1269.9280175274444 -412.6884768139638C1390.1995731607112 -121.87581575830836 1242.503740727996 854.4524400757575 955.4778832643985 1160.2153120375565C668.4520258008008 1465.9781839993557 191.96165690570388 1285.292434877063 -107.7960982978243 1054.9733086026704C-407.5538535013525 824.654182328278 -584.603198904735 323.57074959386114 -483.35934171253774 54.68350592047295C-382.1154845203405 -214.20373775291512 12.906216383057654 -138.3162979599167 378.17441622472097 -235.68546102959067C743.4426160663841 -333.05462409926463 1149.6564618941782 -703.5011378696192 1269.9280175274444 -412.6884768139638C1390.1995731607112 -121.87581575830836 1242.503740727996 854.4524400757575 955.4778832643985 1160.2153120375565 "></path><path d="M1242.7428594861203 -387.29189706367396C1359.255929005847 -105.56713166600775 1216.1755913366546 840.2508661732434 938.1192919187945 1136.4586483862363C660.0629925009343 1432.666430599229 198.46294763380934 1257.627111137008 -91.92737771960856 1034.5054575586905C-382.31770307302656 811.3838039803727 -553.8342564325533 325.95922851890646 -455.75426977761225 65.47471121031163C-357.67428312267117 -195.00980609828298 25.002989627495822 -121.49384879881586 378.8565582241072 -215.8202255225625C732.7101268207182 -310.14660224630916 1126.229789966394 -669.0166624613402 1242.7428594861203 -387.29189706367396C1359.255929005847 -105.56713166600775 1216.1755913366546 840.2508661732434 938.1192919187945 1136.4586483862363 "></path><path d="M1215.5575488569061 -361.8953478309622C1328.3121322630932 -89.25847809128527 1189.847289357423 826.0492617531515 920.7605479853003 1112.701954217338C651.6738066131775 1399.354646681525 204.96408577402417 1229.9617568793756 -76.05880972928344 1014.0375759971323C-357.08170523259116 798.1133951148895 -523.0654665482623 328.34767692637365 -428.1493504305774 76.2658859825724C-333.2332343128925 -175.81590496122908 37.099610284043365 -104.67143015529314 379.5385476356025 -195.95502053311236C721.9774849871619 -287.2386109109317 1102.802965450719 -634.5322175706392 1215.5575488569061 -361.8953478309622C1328.3121322630932 -89.25847809128527 1189.847289357423 826.0492617531515 920.7605479853003 1112.701954217338 "></path><path d="M1188.372360298004 -336.49885963340665C1297.3684575906514 -72.94988555171881 1163.5191094485035 811.8475962979032 903.4019261221183 1088.9451990132836C643.2847427957331 1366.042801728664 211.4653459845515 1202.296341586586 -60.190119668645934 993.5696334004181C-331.8455853218434 784.8429252142498 -492.29655459365875 330.7360642986846 -400.54430901323 87.0569997196767C-308.7920634328013 -156.62206485933132 49.196353010903294 -87.84907254692644 380.2206591174106 -176.08987657881858C711.2449652239179 -264.3306806107105 1079.3762630053563 -600.0478337150944 1188.372360298004 -336.49885963340665C1297.3684575906514 -72.94988555171881 1163.5191094485035 811.8475962979032 903.4019261221183 1088.9451990132836 "></path><path d="M1161.1870191512114 -311.10243247100743C1266.4246303303194 -56.64135404730882 1137.1907769516936 797.6458698074985 886.043151671046 1065.1883827740728C634.8955263903979 1332.7308957406467 217.9664536071882 1174.6308652586408 -44.321582195899055 973.1016297685476C-306.60961799898615 771.5723942784541 -461.52779522694584 333.1243906358395 -372.9394201837733 97.84805242162474C-284.3510451406007 -137.4282857925898 61.29294314987271 -71.02677597371621 380.90261801132806 -156.22479365968093C700.5122928727833 -241.42281134564564 1055.9494079721032 -565.5635108947059 1161.1870191512114 -311.10243247100743C1266.4246303303194 -56.64135404730882 1137.1907769516936 797.6458698074985 886.043151671046 1065.1883827740728 "></path><path d="M1134.001769557153 -285.70585272071753C1235.4808946227213 -40.332669955008214 1110.8625360076182 783.4442959049848 868.6844687727078 1041.4317191227526C626.506401537797 1299.4191423405207 224.4676527825593 1146.965541518586 -28.452953170417686 952.6337787245675C-281.37355912339456 758.302015930549 -430.75894430749855 335.51286956088484 -345.33443980158216 108.63925771146353C-259.9099352956657 -118.23435413795778 73.3896248415765 -54.20432681261536 381.5846684579799 -136.35955815265265C689.7797120743833 -218.51478949269006 1032.5226444915845 -531.0790354864268 1134.001769557153 -285.70585272071753C1235.4808946227213 -40.332669955008214 1110.8625360076182 783.4442959049848 868.6844687727078 1041.4317191227526 "></path><path d="M1106.816611515829 -260.3093950407401C1204.5372504678578 -24.024107933020105 1084.5343866162768 769.2425999321583 851.3258774271039 1017.6749334011201C618.1173682379308 1266.107266870082 230.96894351066476 1119.300095708219 -12.584232592201943 932.1658056102754C-256.13740869506864 745.0315155123312 -399.9900018353169 337.90122641561766 -317.7293678666566 119.43034093098981C-235.4687338979964 -99.04054455363803 85.48639808601467 -37.3819997218269 382.26681045736586 -116.494444715937C679.0472228287174 -195.60688971004703 1009.0959725638002 -496.59468214846015 1106.816611515829 -260.3093950407401C1204.5372504678578 -24.024107933020105 1084.5343866162768 769.2425999321583 851.3258774271039 1017.6749334011201 "></path><path d="M1079.6313008866146 -234.91284580802835C1173.593453725104 -7.71545435829762 1058.2060846370453 755.0409955120663 833.9671334936097 993.9182392322218C609.7281823501739 1232.7954829523774 237.47008165087948 1091.634741450586 3.284335398123062 911.6979240487171C-230.9014108546333 731.761106646848 -369.22121195102585 340.28967482308485 -290.12444851962175 130.22151570325036C-211.0276850882177 -79.84664341658413 97.5830187425621 -20.559581078304063 382.94879986886144 -96.62923972648696C668.3145809951611 -172.69889837466962 985.6691480481252 -462.1102372577592 1079.6313008866146 -234.91284580802835C1173.593453725104 -7.71545435829762 1058.2060846370453 755.0409955120663 833.9671334936097 993.9182392322218 "></path><path d="M1052.446020774978 -209.51635761047288C1142.6496874999277 8.593138181268614 1031.8778131753916 740.839330056818 816.6084200776932 970.1614840281673C601.3390269799952 1199.4836379995168 243.97125030867244 1063.969326157797 19.152933906026306 891.2299814520027C-205.66538249661983 718.4906367462086 -338.4523915491567 342.6780621953959 -262.51949865500876 141.01262944035466C-186.58660576086083 -60.652803314686366 109.67966991668777 -3.7372234699375895 383.63081979793515 -76.76409577219306C657.5819696791827 -149.79096807444847 962.2423540500283 -427.6258534022145 1052.446020774978 -209.51635761047288C1142.6496874999277 8.593138181268614 1031.8778131753916 740.839330056818 816.6084200776932 970.1614840281673 "></path><path d="M1025.2608016984977 -184.1198083777611C1111.7059823099078 24.901791755991326 1005.5496027488939 726.6377256367259 799.2497676969333 946.4047898592692C592.9499326449727 1166.1718540818122 250.47248000162165 1036.3039719001645 35.021593449085685 870.7620998904447C-180.42929310345016 705.2202278807251 -307.68351011213133 345.0665106028631 -234.91448775523952 151.80380421261532C-162.14546539834777 -41.45890217763235 121.77638212596969 13.085195173585134 384.3129007621651 -56.89889078274291C646.8494193983606 -126.88297673907107 938.8156210870877 -393.1414085115135 1025.2608016984977 -184.1198083777611C1111.7059823099078 24.901791755991326 1005.5496027488939 726.6377256367259 799.2497676969333 946.4047898592692 "></path><path d="M998.0755215868614 -158.72332018020563C1080.7622160847318 41.21038429555756 979.2213312872404 712.4360601814776 781.8910542810172 922.6480346552146C584.5607772747937 1132.8600091289513 256.9736486594145 1008.6385566073752 50.89019195698893 850.2941572937302C-155.19326474543664 691.9497579800855 -276.91468971026217 347.45489797517405 -207.30953789062653 162.59491794971973C-137.70438607099095 -22.265062075734704 133.87303330009536 29.907552781951722 384.9949206912387 -37.033746828449125C636.1168080823822 -103.97504643884992 915.3888270889906 -358.6570246559687 998.0755215868614 -158.72332018020563C1080.7622160847318 41.21038429555756 979.2213312872404 712.4360601814776 781.8910542810172 922.6480346552146 "></path><path d="M970.8903025103812 -133.32677094749386C1049.8185108947123 57.519037870280044 952.893120860743 698.2344557613856 764.5324019002569 898.8913404863163C576.1716829397712 1099.548225211247 263.4748783523638 980.9732023497422 66.75885150004842 829.8262757321722C-129.95717535226697 678.6793491146022 -246.14580827323675 349.84334638264136 -179.7045269908573 173.38609272198028C-113.26324570847788 -3.0711609386806913 145.96974550937716 46.72997142547456 385.67700165546876 -17.168541838998976C625.3842578015601 -81.06705510347251 891.9620941260503 -324.17257976526776 970.8903025103812 -133.32677094749386C1049.8185108947123 57.519037870280044 952.893120860743 698.2344557613856 764.5324019002569 898.8913404863163 "></path><path d="M943.7050529163228 -107.93028274993833C1018.8747751871142 73.82763040984628 926.5648799166672 684.0327903061375 747.1737190019189 875.1345852822619C567.7825580871704 1066.2363802583864 269.9760775277349 953.3077870569532 82.62748052552979 809.358333135458C-104.72111647667538 665.4088792139628 -215.37695735378946 352.2317337549523 -152.09954660866617 184.1772064590848C-88.82213586354288 16.12267916321707 158.06642720108096 63.55232903384103 386.3590521021205 2.6966021152948088C614.6516770031599 -58.15912480325136 868.5353306455313 -289.688195909723 943.7050529163228 -107.93028274993833C1018.8747751871142 73.82763040984628 926.5648799166672 684.0327903061375 747.1737190019189 875.1345852822619 "></path><path d="M916.5198033222644 -82.5337945523828C987.9310394795164 90.13622294941263 900.2366389725919 669.831124850889 729.815036103581 851.3778300782074C559.3934332345698 1032.9245353055255 276.4772767031059 925.6423717641642 98.49610955101105 788.8903905387438C-79.48505760108378 652.1384093133231 -184.60810643434218 354.62012112726325 -124.49456622647506 194.9683201961891C-64.38102601860794 35.316519265114835 170.16310889278475 80.37468664220762 387.0411025487723 22.561746069588708C603.9190962047599 -35.251194503030206 845.1085671650126 -255.20381205417823 916.5198033222644 -82.5337945523828C987.9310394795164 90.13622294941263 900.2366389725919 669.831124850889 729.815036103581 851.3778300782074 "></path><path d="M889.3345537282062 -57.137245319671024C956.9873037719185 106.44487652413511 873.9083980285163 655.6295204307971 712.4563532052425 827.621135909309C551.004308381969 999.6127513878209 282.97847587847696 897.9770175065314 114.36473857649241 768.4225089771858C-54.24899872549224 638.8680004478401 -153.8392555148949 357.00856953473044 -96.88958584428394 205.75949496844964C-39.939916173673 54.51042040216885 182.25979058448843 97.19710528573046 387.723152995424 42.426951059038856C593.1865154063598 -12.343203167652746 821.6818036844938 -220.71936716347724 889.3345537282062 -57.137245319671024C956.9873037719185 106.44487652413511 873.9083980285163 655.6295204307971 712.4563532052425 827.621135909309 "></path><path d="M862.1493041341478 -31.74078763969368C926.0435680643204 122.75343854612333 847.5801570844405 641.4278244579707 695.0976703069045 803.8643501876763C542.6151835293683 966.3008759173822 289.47967505384804 870.3115716961643 130.23336760197367 747.9545358628934C-29.012939849900647 625.5975000296221 -123.0704045954476 359.39692638946326 -69.28460546209283 216.55057818797582C-15.498806328738056 73.70422998648837 194.35647227619222 114.01943237651881 388.40520344207584 62.292064495754516C582.4539346079595 10.564696614990225 798.2550402039751 -186.23501382551063 862.1493041341478 -31.74078763969368C926.0435680643204 122.75343854612333 847.5801570844405 641.4278244579707 695.0976703069045 803.8643501876763 "></path><path d="M834.9640545400894 -6.344207889403776C895.0998323567228 139.06212263842394 821.2519161403652 627.2262505554568 677.7389874085666 780.1076865363564C534.2260586767676 932.989122517256 295.9808742292191 842.6462479561096 146.10199662745504 727.4866848189133C-3.7768809743090515 612.327121681717 -92.30155367600031 361.7854053145087 -41.67962507990171 227.3417834778146C8.942303516196944 92.89816164112057 206.45315396789601 130.84188153761977 389.0872538887277 82.15730000278279C571.7213538095592 33.47271846794581 774.8282767234564 -151.7505384172315 834.9640545400894 -6.344207889403776C895.0998323567228 139.06212263842394 821.2519161403652 627.2262505554568 677.7389874085666 780.1076865363564 "></path><path d="M807.7788049460312 19.05224979057357C864.1560966491247 155.37068466041205 794.9236751962897 613.0245545826305 660.3803045102281 756.3509008147237C525.8369338241669 899.6772470468172 302.4820734045902 814.9808021457425 161.9706256529364 707.0187117046207C21.459177901282544 599.0566212634994 -61.53270275655302 364.1737621692415 -14.074644697710596 238.1328666973409C33.383413361131886 112.09197122544015 218.5498356595998 147.66420862840812 389.7693043353794 102.02241343949851C560.9887730111591 56.38061825058884 751.4015132429377 -117.26618507926491 807.7788049460312 19.05224979057357C864.1560966491247 155.37068466041205 794.9236751962897 613.0245545826305 660.3803045102281 756.3509008147237 "></path><path d="M780.593555351973 44.448799023285346C833.2123609415269 171.67933823513465 768.5954342522141 598.8229501625383 643.0216216118902 732.5942066458256C517.4478089715661 866.3654631291124 308.9832725799613 787.3154478881095 177.83925467841766 686.5508301430627C46.69523677687408 585.7862123980161 -30.763851837105733 366.5622105767088 13.530335684480576 248.92404146960143C57.82452320606683 131.28587236249416 230.6465173513036 164.48662727193096 390.4513547820312 121.8876184289486C550.2561922127588 79.28860958596624 727.9747497624189 -82.7817401885639 780.593555351973 44.448799023285346C833.2123609415269 171.67933823513465 768.5954342522141 598.8229501625383 643.0216216118902 732.5942066458256 "></path><path d="M753.4083057579146 69.84528722084087C802.268625233929 187.98793077470089 742.2671933081383 584.6212847072901 625.662938713552 708.837451441771C509.0586841189654 833.0536181762518 315.4844717553324 759.6500325953205 193.70788370389903 666.0828875463486C71.93129565246568 572.5157424973766 0.00499908234155555 368.95059794901977 41.13531606667169 259.71515520670584C82.26563305100183 150.47971246439192 242.74319904300728 181.3089848802975 391.13340522868293 141.75276238324244C539.5236114143587 102.19653988618745 704.5479862819001 -48.29735633301914 753.4083057579146 69.84528722084087C802.268625233929 187.98793077470089 742.2671933081383 584.6212847072901 625.662938713552 708.837451441771 "></path><path d="M726.2230256462781 95.24180593597453C771.3248590087528 204.29655383184524 715.9389218464848 570.4196497696199 608.3042252976356 685.0807267552946C500.66952874878666 799.7418037409693 321.98564041312534 731.9846478201093 209.57648221180222 645.6149754672123C97.16732401047915 559.2453031143152 30.77381948421072 371.33901583890884 68.74026593128468 270.50629946138827C106.70671237835865 169.67358308386775 254.83985021713295 198.13137300624214 391.81542515775664 161.6179368551144C528.7910000983804 125.10450070398667 681.1211922838032 -13.812941959896307 726.2230256462781 95.24180593597453C771.3248590087528 204.29655383184524 715.9389218464848 570.4196497696199 608.3042252976356 685.0807267552946 "></path><path d="M699.0378065697979 120.63832465110812C740.3811538187331 220.60517688898972 689.6107114199874 556.2180148319497 590.9455729168758 661.3240020688182C492.28043441376406 766.4299893056866 328.48687010607443 704.3192630448985 225.44514175486165 625.147063388076C122.40341340364887 545.9748637312537 61.54270092123613 373.7274337287979 96.34527683105392 281.2974437160708C131.1478527408717 188.86745370334359 266.93656242641487 214.9537611321868 392.4975061219866 181.48311132698637C518.0584498175583 148.012461521786 657.6944593208625 20.67147241322658 699.0378065697979 120.63832465110812C740.3811538187331 220.60517688898972 689.6107114199874 556.2180148319497 590.9455729168758 661.3240020688182 "></path><path d="M671.8525264581614 146.0348738838199C709.4373875935571 236.9138304637122 663.2824399583336 542.0164104118578 573.5868595009595 637.56730789992C483.8912790435852 733.1182053879822 334.9880387638675 676.6539087872657 241.3137402627649 604.6791818265181C147.63944176166228 532.7044548657705 92.3115213231053 376.1158821362652 123.95022669566691 292.08861848833146C155.58893206822853 208.0613548403976 279.0332136005405 231.77617977570958 393.1795260510603 201.34831631643647C507.32583850157994 170.9204528571634 634.2676653227657 55.155917303927595 671.8525264581614 146.0348738838199C709.4373875935571 236.9138304637122 663.2824399583336 542.0164104118578 573.5868595009595 637.56730789992 "></path><path d="M644.667246346525 171.43136208137543C678.4936213683811 253.2224230032785 636.95416849668 527.8147449566095 556.2281460850431 613.8105526958655C475.50212367340646 699.8063604351214 341.48920742166035 648.9884934944766 257.1823387706681 584.2112392298038C172.87547011967575 519.433984965131 123.08034172497446 378.50426950857616 151.5551765602799 302.87973222543576C180.0300113955854 227.25519494229536 291.1298647746661 248.59853738407617 393.8615459801339 221.21346027073037C496.5932271856018 193.82838315738456 610.8408713246688 89.6403011594723 644.667246346525 171.43136208137543C678.4936213683811 253.2224230032785 636.95416849668 527.8147449566095 556.2281460850431 613.8105526958655 "></path><path d="M617.4820272700447 196.82788079650902C647.5499161783614 269.5310460604229 610.6259580701826 513.6131100189393 538.8694937042833 590.0538280093891C467.11302933838374 666.4945459998389 347.99043711460956 621.3231087192657 273.0509983137275 563.7433271506676C198.11155951284547 506.16354558206945 153.84922316199987 380.89268739846534 179.16018746004914 313.67087648011824C204.47115175809847 246.44906556177125 303.226576983948 265.4209255100208 394.54362694436384 241.07863474260233C485.86067690477967 216.73634397518384 587.4141383617282 124.12471553259519 617.4820272700447 196.82788079650902C647.5499161783614 269.5310460604229 610.6259580701826 513.6131100189393 538.8694937042833 590.0538280093891 "></path><path d="M590.2967776759865 222.22439951164267C616.6061804707634 285.8396691175673 584.297717126107 499.41147508126915 521.5108108059451 566.2971033229128C458.7239044857831 633.1827315645562 354.49163628998065 593.6577239440547 288.91962733920883 543.2754150715314C223.34761838843707 492.8931061990081 184.6180740814471 383.2811052883544 206.76516784224026 324.4620207348007C228.91226160303341 265.6429361812471 315.3232586756518 282.2433136359655 395.22567739101555 260.9438092144743C475.1280961063794 239.64430479298312 563.9873748812095 158.60912990571808 590.2967776759865 222.22439951164267C616.6061804707634 285.8396691175673 584.297717126107 499.41147508126915 521.5108108059451 566.2971033229128 "></path><path d="M563.1115280819281 247.6209334855654C585.6624447631655 302.14830743350075 557.9694761820315 485.20985540238803 504.1521279076069 542.5403938952254C450.3347796331824 599.8709323880628 360.99283546535173 565.9923544276328 304.78825636469014 522.8075182511843C248.5836772640286 479.62268207473574 215.3869250008944 385.66953843703254 234.37014822443138 335.25318024827226C253.35337144796836 284.836822059512 327.41994036735554 299.0657170206992 395.9077278376674 280.80899894513533C464.3955153079793 262.55228086957146 540.5606114006907 193.09355953762997 563.1115280819281 247.6209334855654C585.6624447631655 302.14830743350075 557.9694761820315 485.20985540238803 504.1521279076069 542.5403938952254 "></path><path d="M535.9262784878697 273.01740642433185C554.7187090555676 318.456884714278 531.6412352379559 471.0081746883508 486.7934450092688 518.7836234323819C441.94565478058166 566.559072176413 367.4940346407228 538.3269238760547 320.6568853901715 502.3395603956809C273.8197361396202 466.3521969153071 246.15577592034168 388.0579105505545 261.97512860662255 346.0442787265876C277.79448129290336 304.0306469026207 339.5166220590593 315.88805937027666 396.5897782843192 300.6741276406401C453.66293450957903 285.46019591100355 517.1338479201719 227.57792813438567 535.9262784878697 273.01740642433185C554.7187090555676 318.456884714278 531.6412352379559 471.0081746883508 486.7934450092688 518.7836234323819 "></path><path d="M508.74101363502234 298.4139403982545C523.7749580891807 334.76552303021145 505.3129790350913 456.80655500946966 469.43474685214164 495.0269140046946C433.55651466919187 533.2472729999195 373.9952185573048 510.6615543596329 336.52549915686376 481.87166357533374C299.05577975642274 453.0817727910347 276.9246115809999 390.44634369923267 289.5800937300246 356.83543824005915C302.23557587904924 323.2245327808856 351.613288491974 332.7104627550104 397.2718134721819 320.53931737130114C442.93033845238983 308.36817198759195 493.7070691808641 262.06235776629757 508.74101363502234 298.4139403982545C523.7749580891807 334.76552303021145 505.3129790350913 456.80655500946966 469.43474685214164 495.0269140046946 "></path><path d="M481.555748782175 323.81045911338816C492.83120712279367 351.07414608735587 478.9847228322267 442.6049200717995 452.0760486950144 471.2701893182182C425.16737455780213 499.93545856463686 380.4964024738868 482.99616958442186 352.394112923556 461.40375149619763C324.29182337322527 439.81133340797334 307.69344724165813 392.83476158912174 317.18505885342665 367.6265824947416C326.6766704651951 342.41840340036146 363.70995492488873 349.53285088095504 397.9538486600446 340.40449184317316C432.1977423952006 331.2761328053912 470.2802904415563 296.54677213942045 481.555748782175 323.81045911338816C492.83120712279367 351.07414608735587 478.9847228322267 442.6049200717995 452.0760486950144 471.2701893182182 "></path><path d="M454.37049918811664 349.2069778285218C461.8874714151958 367.38276914450023 452.6564818881511 428.40328513412936 434.7173657966763 447.51346463174184C416.7782497052014 466.62364412935426 386.99760164925783 455.33078480921097 368.2627419490374 440.9358394170614C349.5278822488168 426.5408940249119 338.4622981611054 395.22317947901087 344.79003923561777 378.4177267494241C351.11778031013006 361.61227401983734 375.80663661659247 366.35523900689975 398.6358991066964 360.26966631504513C421.4651615968004 354.1840936231905 446.8535269610375 331.03118651254334 454.37049918811664 349.2069778285218C461.8874714151958 367.38276914450023 452.6564818881511 428.40328513412936 434.7173657966763 447.51346463174184 "></path><path d="M427.18524959405835 374.60348128486635C430.9437357075979 383.6913769428556 426.32824094407556 414.2016349376702 417.35868289833815 423.7567246864764C408.38912485260073 433.3118144352826 393.4988008246289 427.66538477521095 384.1313709745187 420.46791207913617C374.7639411244084 413.27043938306144 369.2311490805527 397.6115821101109 372.3950196178089 389.2088557453175C375.55889015506506 380.8061293805241 387.9033183082962 383.17761187405534 399.3179495533482 380.13482552812803C410.7325807984002 377.0920391822007 423.42676348051873 365.5155856268771 427.18524959405835 374.60348128486635C430.9437357075979 383.6913769428556 426.32824094407556 414.2016349376702 417.35868289833815 423.7567246864764 "></path></g></svg>