<svg id="visual" viewBox="0 0 900 600" width="900" height="600" xmlns="http://www.w3.org/2000/svg" xmlns:xlink="http://www.w3.org/1999/xlink" version="1.1"><rect x="0" y="0" width="900" height="600" fill="#ffffff"></rect><path d="M0 383L180 398L360 380L540 397L720 398L900 399L900 601L720 601L540 601L360 601L180 601L0 601Z" fill="#b4ffa9"></path><path d="M0 403L180 418L360 406L540 422L720 418L900 401L900 601L720 601L540 601L360 601L180 601L0 601Z" fill="#94de97"></path><path d="M0 441L180 440L360 446L540 430L720 449L900 442L900 601L720 601L540 601L360 601L180 601L0 601Z" fill="#76bd84"></path><path d="M0 472L180 456L360 457L540 474L720 475L900 454L900 601L720 601L540 601L360 601L180 601L0 601Z" fill="#5b9e71"></path><path d="M0 491L180 502L360 487L540 499L720 504L900 497L900 601L720 601L540 601L360 601L180 601L0 601Z" fill="#437f5d"></path><path d="M0 527L180 508L360 525L540 511L720 529L900 531L900 601L720 601L540 601L360 601L180 601L0 601Z" fill="#2e6149"></path><path d="M0 541L180 547L360 545L540 534L720 554L900 545L900 601L720 601L540 601L360 601L180 601L0 601Z" fill="#1b4434"></path><path d="M0 583L180 568L360 578L540 573L720 580L900 573L900 601L720 601L540 601L360 601L180 601L0 601Z" fill="#0c2920"></path></svg>